<svg xmlns="http://www.w3.org/2000/svg" width="652" height="382" viewBox="0 0 652 382" version="1.1">
	<path d="M 323 96.062 C 311.802 99.177, 262.510 112.170, 252.500 114.646 C 234.570 119.081, 218.791 125.617, 212.307 131.296 C 204.977 137.716, 197.368 160.445, 189.478 199.485 C 188.035 206.627, 186.346 213.083, 185.725 213.831 C 185.104 214.580, 181.328 217.651, 177.334 220.657 C 165.671 229.435, 153.877 242.679, 148.710 252.798 C 139.795 270.259, 137.669 287.623, 142.960 299.757 C 147.092 309.232, 156.717 315.348, 167.500 315.348 C 184.410 315.348, 197.751 301.145, 206.808 273.500 C 211.203 260.089, 213.010 253.790, 214.477 246.778 C 217.495 232.355, 217.410 232.508, 223.751 230.033 C 226.913 228.799, 233.100 226.552, 237.500 225.040 C 256.249 218.599, 262.704 213.128, 270.709 196.899 C 273.530 191.180, 276.154 185.240, 276.540 183.701 C 277.211 181.025, 277.115 180.932, 274.371 181.593 C 270.553 182.514, 241.701 191.382, 236 193.388 C 230.770 195.228, 226 195.476, 226 193.908 C 226 192.170, 231.848 169.291, 234.595 160.282 C 236.490 154.070, 237.780 151.581, 239.880 150.086 C 242.693 148.082, 258.429 142.742, 278.500 136.979 C 302.944 129.960, 314.613 124.392, 323.510 115.504 C 331.313 107.708, 338.760 92.844, 334.750 93.071 C 334.063 93.109, 328.775 94.456, 323 96.062 M 171.688 255.933 C 162.820 264.107, 160.205 275.840, 165.844 282.151 C 167.524 284.032, 169.282 285.106, 170.142 284.776 C 171.080 284.416, 172.602 279.646, 174.423 271.359 C 179.234 249.471, 179.159 249.047, 171.688 255.933 M 238.243 259.106 C 237.042 259.550, 235.830 260.945, 235.549 262.207 C 233.619 270.875, 229.935 295.389, 230.386 296.564 C 230.814 297.679, 233.162 298, 240.887 298 C 253.191 298, 254 297.716, 254 293.393 L 254 290 247.607 290 C 243.219 290, 241.054 289.584, 240.705 288.674 C 240.425 287.945, 241.264 281.355, 242.568 274.030 C 243.873 266.705, 244.736 260.381, 244.486 259.977 C 243.702 258.709, 240.517 258.265, 238.243 259.106 M 278.506 259.500 C 277.496 260.349, 271.909 289.479, 271.602 295.500 C 271.505 297.400, 272.133 297.500, 284.169 297.500 C 291.137 297.500, 297.066 297.272, 297.343 296.993 C 297.621 296.713, 297.995 295.138, 298.174 293.493 L 298.500 290.500 290.250 290.210 L 282 289.919 282 286.460 L 282 283 288.418 283 C 296.946 283, 298 282.498, 298 278.439 L 298 275.091 291.250 274.796 L 284.500 274.500 284.782 271.039 C 284.938 269.135, 285.613 267.210, 286.282 266.760 C 286.952 266.311, 290.467 266.219, 294.093 266.557 C 299.464 267.058, 300.993 266.864, 302.343 265.514 C 304.595 263.262, 304.534 259.011, 302.250 258.962 C 283.549 258.561, 279.516 258.652, 278.506 259.500 M 348.199 258.986 C 346.384 259.416, 344.774 259.933, 344.623 260.134 C 344.471 260.335, 342.861 262.611, 341.045 265.192 C 337.820 269.777, 335.468 271.625, 334.663 270.206 C 334.443 269.818, 333.695 267.700, 333.001 265.500 C 332.307 263.300, 331.293 260.938, 330.747 260.250 C 329.617 258.827, 321 258.523, 321 259.907 C 321 260.406, 322.277 263.668, 323.837 267.157 C 328.568 277.736, 328.565 278.114, 323.697 284.162 C 317.840 291.438, 315 295.598, 315 296.904 C 315 298.267, 320.488 298.344, 322.968 297.017 C 323.978 296.477, 326.462 293.777, 328.487 291.017 C 330.513 288.258, 332.570 286, 333.057 286 C 333.545 286, 334.920 288.268, 336.113 291.040 C 337.305 293.812, 339.088 296.512, 340.075 297.040 C 342.669 298.428, 346.979 298.219, 347.571 296.675 C 348.069 295.378, 345.584 288.629, 342.285 282.321 C 340.636 279.169, 340.653 279.098, 344.283 273.821 C 346.296 270.895, 349.617 266.554, 351.662 264.177 C 354.683 260.664, 355.110 259.682, 353.940 258.942 C 353.148 258.441, 352.275 258.070, 352 258.118 C 351.725 258.166, 350.015 258.556, 348.199 258.986 M 376.021 258.972 C 373.694 259.543, 373.378 260.463, 370.852 274.040 C 366.433 297.792, 366.494 296.835, 369.351 297.552 C 374.142 298.755, 375.602 296.813, 377.445 286.785 C 378.384 281.678, 379.793 274.189, 380.576 270.143 C 381.359 266.097, 382 261.987, 382 261.010 C 382 258.943, 379.548 258.107, 376.021 258.972 M 405.930 258.799 C 403.412 259.092, 403.294 259.468, 400.083 277.487 C 398.280 287.601, 397.101 296.354, 397.462 296.938 C 398.356 298.384, 402.244 298.278, 404.303 296.750 C 405.284 296.022, 406.256 293.413, 406.632 290.500 C 406.986 287.750, 407.719 284.938, 408.261 284.250 C 408.865 283.483, 411.717 283, 415.647 283 C 421.666 283, 422.110 282.840, 423.066 280.328 C 424.729 275.951, 423.713 275.120, 416.299 274.797 C 409.684 274.508, 409.510 274.433, 409.852 272 C 410.624 266.522, 411.496 266, 419.875 266 C 427.267 266, 427.740 265.866, 428.839 263.453 C 429.478 262.052, 430 260.505, 430 260.015 C 430 259.151, 411.108 258.197, 405.930 258.799 M 471.329 259.002 C 470.135 259.483, 467.288 262.631, 465.002 265.996 C 459.705 273.797, 458.918 273.627, 455.788 264 C 454.356 259.597, 454.224 259.493, 449.662 259.195 C 447.098 259.028, 445 259.123, 445 259.408 C 445 259.693, 445.951 262.305, 447.114 265.213 C 451.846 277.047, 452.959 282.666, 451.835 289.045 C 450.544 296.375, 451.091 298, 454.846 298 C 458.697 298, 459.885 296.352, 461.008 289.448 C 462.015 283.266, 465.238 277.254, 473.361 266.407 C 477.288 261.163, 478.016 259.624, 476.902 258.918 C 475.204 257.843, 474.164 257.859, 471.329 259.002 M 492.596 258.844 C 492.289 259.342, 493.674 263.743, 495.675 268.625 C 499.336 277.556, 499.764 281.180, 498.731 294.473 C 498.478 297.722, 500.217 298.664, 504.488 297.592 C 506.487 297.091, 506.998 295.992, 508.098 289.841 C 509.400 282.554, 510.056 281.323, 520.600 266.377 C 522.976 263.009, 524.638 259.971, 524.293 259.627 C 523.949 259.282, 522.170 259, 520.340 259 C 517.351 259, 516.580 259.658, 512.756 265.479 C 510.415 269.043, 507.784 271.968, 506.910 271.979 C 505.803 271.994, 504.918 270.325, 503.997 266.487 C 503.270 263.455, 502.185 260.589, 501.587 260.118 C 499.891 258.780, 493.220 257.835, 492.596 258.844" stroke="none" fill="#dd0303" fill-rule="evenodd"/>
</svg>