<?xml version="1.0" standalone="no"?>
<!DOCTYPE svg PUBLIC "-//W3C//DTD SVG 20010904//EN"
 "http://www.w3.org/TR/2001/REC-SVG-20010904/DTD/svg10.dtd">
<svg version="1.0" xmlns="http://www.w3.org/2000/svg"
 width="300.000000pt" height="176.000000pt" viewBox="0 0 300.000000 176.000000"
 preserveAspectRatio="xMidYMid meet">
<metadata>
Created by potrace 1.10, written by Peter Selinger 2001-2011
</metadata>
<g transform="translate(0.000000,176.000000) scale(0.100000,-0.100000)"
fill="#000000" stroke="none">
<path d="M1540 1336 c-3 -2 -109 -32 -235 -66 -267 -71 -322 -93 -352 -147
-22 -40 -50 -136 -78 -264 -16 -75 -17 -76 -90 -142 -55 -50 -82 -84 -106
-133 -71 -144 -28 -277 90 -277 99 0 176 114 222 330 10 52 12 53 62 70 120
42 149 62 190 141 22 40 37 75 35 78 -3 2 -55 -12 -117 -32 -62 -19 -115 -33
-117 -31 -10 9 40 181 57 198 10 10 58 30 106 44 224 66 284 99 324 177 18 34
23 69 9 54z m-70 -66 c0 -5 -13 -23 -30 -38 -27 -27 -60 -39 -284 -109 -45
-14 -87 -44 -97 -69 -6 -14 -129 -117 -135 -112 -5 6 42 133 64 170 22 38 100
70 302 122 96 24 176 45 178 45 1 1 2 -3 2 -9z m-447 -302 c-13 -95 -25 -112
-86 -132 -50 -16 -18 75 46 129 22 19 42 35 43 35 1 0 0 -15 -3 -32z m183
-110 c16 -26 -117 -118 -169 -117 -4 0 -25 -17 -45 -37 -38 -38 -148 -94 -184
-94 -30 0 -56 -18 -73 -50 -18 -35 -19 -50 -3 -87 6 -15 12 -32 12 -38 2 -19
34 -16 69 8 20 14 34 27 31 30 -3 3 -2 33 2 67 7 66 20 82 78 96 28 7 28 6 21
-27 -4 -19 -18 -51 -31 -71 -23 -37 -21 -51 4 -26 20 20 13 -2 -17 -56 -66
-115 -142 -143 -196 -72 -21 28 -24 38 -16 55 7 13 8 22 1 26 -12 8 -13 39 -1
63 5 9 15 30 22 47 8 16 47 63 88 105 40 41 77 85 81 96 14 35 96 69 160 67
31 -1 76 4 100 12 57 17 57 17 66 3z m-390 -281 c-3 -12 -10 -46 -16 -75 -13
-56 -35 -70 -46 -27 -8 33 1 66 27 98 25 33 43 35 35 4z"/>
<path d="M1087 563 c-7 -11 -27 -123 -27 -150 0 -21 4 -23 55 -23 48 0 55 2
55 20 0 16 -7 20 -31 20 -34 0 -34 1 -13 108 6 28 4 32 -14 32 -12 0 -23 -3
-25 -7z"/>
<path d="M1276 558 c-2 -7 -10 -48 -18 -91 l-14 -78 65 3 c51 2 66 6 66 18 0
11 -10 15 -37 14 -31 -1 -38 2 -38 17 0 15 7 19 34 19 20 0 36 6 39 14 8 20
-2 26 -34 19 -25 -5 -29 -2 -29 16 0 18 6 21 45 21 38 0 45 3 45 20 0 18 -7
20 -60 20 -40 0 -62 -4 -64 -12z"/>
<path d="M1491 525 l20 -45 -36 -44 c-20 -24 -32 -46 -28 -49 14 -8 52 11 65
33 17 26 22 25 36 -5 8 -17 20 -25 37 -25 l25 0 -22 44 -21 44 38 46 37 46
-25 0 c-17 0 -33 -10 -48 -32 l-23 -32 -13 32 c-10 24 -19 32 -37 32 l-25 0
20 -45z"/>
<path d="M1715 558 c-5 -17 -25 -141 -25 -156 0 -7 9 -12 20 -12 11 0 20 2 20
4 0 2 7 40 15 83 8 43 15 81 15 86 0 12 -40 8 -45 -5z"/>
<path d="M1842 497 c-6 -40 -14 -81 -18 -90 -5 -13 0 -17 20 -17 22 0 26 4 26
30 0 30 3 32 50 34 15 1 26 8 28 19 3 14 -4 17 -32 17 -20 0 -36 3 -36 8 1 19
19 31 55 34 28 2 41 8 43 21 3 15 -5 17 -60 17 l-64 0 -12 -73z"/>
<path d="M2061 523 c15 -35 19 -60 15 -90 -5 -40 -4 -43 18 -43 19 0 24 7 29
36 3 19 22 57 41 85 42 57 42 59 17 59 -11 0 -29 -15 -42 -37 -24 -38 -25 -38
-43 20 -3 10 -15 17 -30 17 l-25 0 20 -47z"/>
<path d="M2260 566 c0 -2 9 -25 21 -51 15 -35 19 -58 15 -86 -6 -37 -5 -39 19
-39 22 0 25 4 25 33 0 22 12 48 40 85 22 29 40 55 40 57 0 3 -9 5 -20 5 -11 0
-30 -15 -44 -36 -25 -37 -29 -36 -40 9 -5 20 -12 27 -31 27 -14 0 -25 -2 -25
-4z"/>
</g>
</svg>
