<?xml version="1.0" encoding="utf-8"?>
<!-- Generator: Adobe Illustrator 27.0.0, SVG Export Plug-In . SVG Version: 6.00 Build 0)  -->
<svg version="1.1" id="Layer_1" xmlns="http://www.w3.org/2000/svg" xmlns:xlink="http://www.w3.org/1999/xlink" x="0px" y="0px"
	 viewBox="0 0 1440 671" style="enable-background:new 0 0 1440 671;" xml:space="preserve">
<style type="text/css">
	.st0{opacity:0.5;clip-path:url(#SVGID_00000122711203708407096270000004428285261487969721_);}
	.st1{clip-path:url(#SVGID_00000048495753535199689090000007041656208466887341_);}
	
		.st2{opacity:0.5;fill-rule:evenodd;clip-rule:evenodd;fill:url(#SVGID_00000053516731081056219330000017863342889515164544_);enable-background:new    ;}
	
		.st3{opacity:0.5;fill-rule:evenodd;clip-rule:evenodd;fill:url(#SVGID_00000033351008763134006620000010738692778185786240_);enable-background:new    ;}
</style>
<g>
	<defs>
		<rect id="SVGID_1_" width="1440" height="671"/>
	</defs>
	<clipPath id="SVGID_00000089566434897465914670000004421171294468938395_">
		<use xlink:href="#SVGID_1_"  style="overflow:visible;"/>
	</clipPath>
	<g style="opacity:0.5;clip-path:url(#SVGID_00000089566434897465914670000004421171294468938395_);">
		<g>
			<defs>
				<rect id="SVGID_00000006697399217416321120000005349649749444203689_" x="878" width="562" height="671"/>
			</defs>
			<clipPath id="SVGID_00000063610868794502982370000017192433624546551725_">
				<use xlink:href="#SVGID_00000006697399217416321120000005349649749444203689_"  style="overflow:visible;"/>
			</clipPath>
			<g style="clip-path:url(#SVGID_00000063610868794502982370000017192433624546551725_);">
				
					<linearGradient id="SVGID_00000129183340431722814150000003022595444442002824_" gradientUnits="userSpaceOnUse" x1="1653.9834" y1="507.9214" x2="996.4834" y2="211.4214" gradientTransform="matrix(1 0 0 -1 0 672)">
					<stop  offset="0" style="stop-color:#0F2C2F;stop-opacity:0"/>
					<stop  offset="0.1196" style="stop-color:#0F4D2F"/>
					<stop  offset="0.2888" style="stop-color:#2A73FF"/>
					<stop  offset="0.5311" style="stop-color:#B7FF94"/>
					<stop  offset="0.6397" style="stop-color:#F8C55C"/>
					<stop  offset="1" style="stop-color:#0C1824;stop-opacity:0"/>
				</linearGradient>
				
					<path style="opacity:0.5;fill-rule:evenodd;clip-rule:evenodd;fill:url(#SVGID_00000129183340431722814150000003022595444442002824_);enable-background:new    ;" d="
					M1440,36.4c0.2,0.4,0.2,0.4,0.2,0.4v0l0,0l-0.1,0c-0.1,0-0.2,0.1-0.3,0.2c-0.3,0.2-0.8,0.4-1.4,0.7c-1.2,0.6-3,1.4-5.4,2.5
					c-4.8,2.2-12.1,5.3-22.1,9.1c-19.8,7.5-50.1,17.5-91.9,27.5c-83.5,20-213.1,40-397.1,40v-1c184,0,313.4-20,396.9-40
					c41.7-10,72-20,91.8-27.5c9.9-3.7,17.2-6.9,22-9.1c2.4-1.1,4.2-1.9,5.4-2.5c0.6-0.3,1-0.5,1.3-0.7c0.1-0.1,0.2-0.1,0.3-0.2
					l0.1,0l0,0v0C1439.8,36,1439.8,36,1440,36.4z M1440,76.4c0.2,0.5,0.2,0.5,0.2,0.5v0l0,0l-0.1,0c-0.1,0-0.2,0.1-0.3,0.2
					c-0.3,0.1-0.8,0.3-1.3,0.6c-1.2,0.5-3,1.3-5.4,2.3c-4.8,2-12.1,4.8-22.1,8.2c-19.8,6.8-50.1,15.8-91.9,24.8
					c-83.5,18-213.1,31-397.1,31v-1c184,0,313.4-13,396.9-31c41.7-9,72-18,91.8-24.7c9.9-3.4,17.2-6.2,22-8.1c2.4-1,4.2-1.8,5.4-2.3
					c0.6-0.3,1-0.5,1.3-0.6c0.1-0.1,0.2-0.1,0.3-0.2l0.1,0l0,0v0C1439.8,76,1439.8,76,1440,76.4z M1440,339.4c0,0,0,0,0-0.5
					s0-0.5,0-0.5H922v1H1440z M1440,373.9c0,0.5,0,0.5,0,0.5H922v-1h518C1440,373.4,1440,373.4,1440,373.9z M1440,406.9
					c0,0.5,0,0.5,0,0.5H922v-1h518C1440,406.4,1440,406.4,1440,406.9z M1440.2,120.9c0,0,0,0-0.2-0.5c-0.2-0.5-0.2-0.5-0.2-0.5l0,0
					l0,0l-0.1,0c-0.1,0-0.2,0.1-0.3,0.1c-0.3,0.1-0.7,0.2-1.3,0.4c-1.2,0.4-3,0.9-5.4,1.5c-4.8,1.3-12.1,3.2-22,5.4
					c-19.8,4.5-50,10.5-91.8,16.5c-83.5,12-212.9,24-396.9,24v1c184,0,313.5-12,397.1-24c41.8-6,72-12,91.9-16.5
					c9.9-2.3,17.2-4.1,22-5.4c2.4-0.7,4.2-1.2,5.4-1.5c0.6-0.2,1-0.3,1.3-0.4c0.2,0,0.3-0.1,0.3-0.1L1440.2,120.9L1440.2,120.9
					L1440.2,120.9z M1440,160.4c0.1,0.5,0.1,0.5,0.1,0.5l0,0l-0.1,0c-0.1,0-0.2,0-0.3,0.1c-0.3,0.1-0.7,0.2-1.3,0.3
					c-1.2,0.2-3,0.6-5.4,1c-4.8,0.9-12.1,2.1-22,3.6c-19.8,3-50.1,7-91.8,11c-83.5,8-213,16-397.1,16v-1c184,0,313.5-8,396.9-16
					c41.7-4,72-8,91.8-11c9.9-1.5,17.2-2.7,22-3.6c2.4-0.4,4.2-0.8,5.4-1c0.6-0.1,1-0.2,1.3-0.3c0.1,0,0.2-0.1,0.3-0.1l0.1,0l0,0
					C1439.9,160,1439.9,160,1440,160.4z M1440.1,197.9c0,0,0,0-0.1-0.5c-0.1-0.5-0.1-0.5-0.1-0.5l-0.1,0c-0.1,0-0.2,0-0.3,0
					c-0.3,0-0.7,0.1-1.3,0.2c-1.2,0.1-3,0.3-5.4,0.6c-4.8,0.5-12.1,1.2-22,2c-19.8,1.7-50.1,3.9-91.8,6.2c-83.5,4.5-213,9-397,9v1
					c184,0,313.5-4.5,397-9c41.8-2.2,72-4.5,91.8-6.2c9.9-0.8,17.2-1.5,22-2c2.4-0.2,4.2-0.4,5.4-0.6c0.6-0.1,1-0.1,1.3-0.2
					c0.2,0,0.3,0,0.3,0L1440.1,197.9z M1440,233.4c0.1,0.5,0,0.5,0,0.5l-0.1,0c-0.1,0-0.2,0-0.3,0c-0.3,0-0.7,0.1-1.3,0.1
					c-1.2,0.1-3,0.2-5.4,0.4c-4.8,0.4-12.1,0.9-22,1.5c-19.8,1.2-50.1,2.8-91.8,4.5c-83.5,3.2-213,6.5-397,6.5v-1
					c184,0,313.5-3.2,397-6.5c41.8-1.6,72-3.2,91.8-4.5c9.9-0.6,17.2-1.1,22-1.5c2.4-0.2,4.2-0.3,5.4-0.4c0.6,0,1-0.1,1.3-0.1l0.3,0
					l0.1,0C1440,232.9,1440,232.9,1440,233.4z M1440,270.9c0,0,0,0,0-0.5s0-0.5,0-0.5l-0.4,0c-0.3,0-0.7,0-1.3,0
					c-1.2,0-3,0.1-5.4,0.1c-4.8,0.1-12.1,0.3-22,0.5c-19.8,0.4-50.1,0.9-91.8,1.4c-83.5,1-213,2-397,2v1c184,0,313.5-1,397-2
					c41.8-0.5,72-1,91.8-1.4c9.9-0.2,17.2-0.3,22-0.5c2.4-0.1,4.2-0.1,5.4-0.1c0.6,0,1,0,1.3,0L1440,270.9z M1440,306.4
					c0,0,0,0,0-0.5s0-0.5,0-0.5H922v1H1440z M1440.2,638c0,0,0,0-0.2,0.5c-0.2,0.5-0.2,0.5-0.2,0.5l0,0l0,0l-0.1,0
					c-0.1,0-0.2-0.1-0.3-0.2c-0.3-0.1-0.7-0.3-1.3-0.6c-1.2-0.5-3-1.3-5.4-2.3c-4.8-2-12.1-4.8-22-8.1c-19.8-6.7-50-15.7-91.8-24.7
					c-83.5-18-212.9-36-396.9-36v-1c184,0,313.6,18,397.1,36c41.8,9,72,18,91.9,24.8c9.9,3.4,17.2,6.2,22.1,8.2
					c2.4,1,4.2,1.8,5.4,2.3c0.6,0.3,1.1,0.5,1.3,0.6c0.2,0.1,0.3,0.1,0.3,0.2L1440.2,638L1440.2,638L1440.2,638z M1440,594.4
					c0.2-0.5,0.2-0.5,0.2-0.5l0,0l0,0l-0.1,0c-0.1,0-0.2-0.1-0.3-0.1c-0.3-0.1-0.7-0.2-1.3-0.4c-1.2-0.4-3-0.9-5.4-1.5
					c-4.8-1.3-12.1-3.2-22-5.4c-19.8-4.5-50.1-10.5-91.8-16.5c-83.5-12-213-24-397.1-24v1c184,0,313.5,12,396.9,24
					c41.7,6,72,12,91.8,16.5c9.9,2.2,17.2,4.1,22,5.4c2.4,0.7,4.2,1.2,5.4,1.5c0.6,0.2,1,0.3,1.3,0.4c0.1,0,0.2,0.1,0.3,0.1l0.1,0
					l0,0v0C1439.9,594.9,1439.9,594.9,1440,594.4z M1440.1,553.9c0,0,0,0-0.1,0.5c-0.1,0.5-0.1,0.5-0.1,0.5l0,0l-0.1,0
					c-0.1,0-0.2,0-0.3-0.1c-0.3-0.1-0.7-0.1-1.3-0.3c-1.2-0.2-3-0.6-5.4-1c-4.8-0.9-12.1-2.1-22-3.6c-19.8-3-50.1-7-91.8-11
					c-83.5-8-213-16-397-16v-1c184,0,313.5,8,397.1,16c41.8,4,72,8,91.8,11c9.9,1.5,17.2,2.8,22,3.6c2.4,0.4,4.2,0.8,5.4,1
					c0.6,0.1,1,0.2,1.3,0.3c0.1,0,0.3,0.1,0.3,0.1L1440.1,553.9L1440.1,553.9z M1440,517.4c0.1-0.5,0.1-0.5,0-0.5l-0.1,0
					c-0.1,0-0.2,0-0.3,0c-0.3,0-0.7-0.1-1.3-0.2c-1.2-0.1-3-0.3-5.4-0.6c-4.8-0.5-12.1-1.2-22-2c-19.8-1.7-50.1-3.9-91.8-6.2
					c-83.5-4.5-213-9-397-9v1c184,0,313.5,4.5,397,9c41.7,2.2,72,4.5,91.8,6.2c9.9,0.8,17.2,1.5,22,2c2.4,0.2,4.2,0.4,5.4,0.6
					c0.6,0.1,1,0.1,1.3,0.1c0.1,0,0.2,0,0.3,0l0.1,0C1440,517.9,1440,517.9,1440,517.4z M1440.1,480.9c0,0,0,0,0,0.5
					c-0.1,0.5-0.1,0.5-0.1,0.5l-0.1,0c-0.1,0-0.2,0-0.3,0c-0.3,0-0.7-0.1-1.3-0.1c-1.2-0.1-3-0.2-5.4-0.4c-4.8-0.4-12.1-0.9-22-1.5
					c-19.8-1.2-50.1-2.8-91.8-4.5c-83.5-3.2-213-6.5-397-6.5v-1c184,0,313.5,3.2,397,6.5c41.8,1.6,72,3.2,91.8,4.5
					c9.9,0.6,17.2,1.1,22,1.5c2.4,0.2,4.2,0.3,5.4,0.4c0.6,0,1,0.1,1.3,0.1c0.1,0,0.3,0,0.3,0L1440.1,480.9z M1440,444.4
					c0-0.5,0-0.5,0-0.5l-0.4,0c-0.3,0-0.7,0-1.3,0c-1.2,0-3-0.1-5.4-0.1c-4.8-0.1-12.1-0.3-22-0.5c-19.8-0.4-50.1-0.9-91.8-1.4
					c-83.5-1-213-2-397-2v1c184,0,313.5,1,397,2c41.8,0.5,72,1,91.8,1.4c9.9,0.2,17.2,0.3,22,0.5c2.4,0.1,4.2,0.1,5.4,0.1
					c0.6,0,1,0,1.3,0l0.4,0C1440,444.9,1440,444.9,1440,444.4z"/>
			</g>
		</g>
		
			<linearGradient id="SVGID_00000128470617519630589560000002810257078951559867_" gradientUnits="userSpaceOnUse" x1="-11.4993" y1="368.557" x2="497.0006" y2="231.557" gradientTransform="matrix(1 0 0 -1 0 672)">
			<stop  offset="0" style="stop-color:#0F2C2F;stop-opacity:0"/>
			<stop  offset="0.1196" style="stop-color:#0F4D2F"/>
			<stop  offset="0.2888" style="stop-color:#2A73FF"/>
			<stop  offset="0.5311" style="stop-color:#B7FF94"/>
			<stop  offset="0.6397" style="stop-color:#F8C55C"/>
			<stop  offset="1" style="stop-color:#0C1824;stop-opacity:0"/>
		</linearGradient>
		
			<path style="opacity:0.5;fill-rule:evenodd;clip-rule:evenodd;fill:url(#SVGID_00000128470617519630589560000002810257078951559867_);enable-background:new    ;" d="
			M0.2,35.4C0,35.9,0,35.9,0,35.9l0,0l0,0l0.1,0c0.1,0,0.2,0.1,0.3,0.2c0.3,0.2,0.7,0.4,1.3,0.7c1.2,0.6,3,1.4,5.4,2.5
			c4.8,2.2,12.1,5.3,22.1,9.1c19.8,7.5,50.1,17.5,91.9,27.5c83.5,20,213.1,40,397.1,40v-1c-184,0-313.4-20-396.9-40
			c-41.7-10-72-20-91.8-27.5c-9.9-3.7-17.2-6.9-22-9.1c-2.4-1.1-4.2-1.9-5.4-2.5c-0.6-0.3-1-0.5-1.3-0.7c-0.1-0.1-0.3-0.1-0.3-0.2
			l-0.1,0l0,0l0,0C0.5,35,0.5,35,0.2,35.4z M0.2,75.4C0,75.9,0,75.9,0,75.9l0,0l0,0l0.1,0c0.1,0,0.2,0.1,0.3,0.2
			c0.3,0.1,0.7,0.3,1.3,0.6C3,77.2,4.8,78,7.2,79c4.8,2,12.1,4.8,22.1,8.2c19.8,6.8,50.1,15.8,91.9,24.8c83.5,18,213.1,31,397.1,31
			v-1c-184,0-313.4-13-396.9-31c-41.7-9-72-18-91.8-24.7c-9.9-3.4-17.2-6.2-22-8.1c-2.4-1-4.2-1.8-5.4-2.3c-0.6-0.3-1-0.5-1.3-0.6
			c-0.1-0.1-0.3-0.1-0.3-0.2l-0.1,0l0,0l0,0C0.5,75,0.5,75,0.2,75.4z M0.2,338.4c0,0,0,0,0-0.5s0-0.5,0-0.5h518v1H0.2z M0.2,372.9
			c0,0.5,0,0.5,0,0.5h518v-1H0.2C0.2,372.4,0.2,372.4,0.2,372.9z M0.2,405.9c0,0.5,0,0.5,0,0.5h518v-1H0.2
			C0.2,405.4,0.2,405.4,0.2,405.9z M0.1,119.9c0,0,0,0,0.2-0.5c0.2-0.5,0.2-0.5,0.2-0.5l0,0l0,0l0.1,0c0.1,0,0.2,0.1,0.3,0.1
			c0.3,0.1,0.7,0.2,1.3,0.4c1.2,0.4,3,0.9,5.4,1.5c4.8,1.3,12.1,3.2,22,5.4c19.8,4.5,50,10.5,91.8,16.5c83.5,12,213,24,396.9,24v1
			c-184,0-313.5-12-397.1-24c-41.8-6-72-12-91.9-16.5c-9.9-2.3-17.2-4.1-22-5.4c-2.4-0.7-4.2-1.2-5.4-1.5c-0.6-0.2-1-0.3-1.3-0.4
			c-0.1,0-0.3-0.1-0.3-0.1L0.1,119.9L0.1,119.9L0.1,119.9z M0.2,159.4c-0.1,0.5-0.1,0.5-0.1,0.5l0,0l0.1,0c0.1,0,0.2,0,0.3,0.1
			c0.3,0.1,0.7,0.2,1.3,0.3c1.2,0.2,3,0.6,5.4,1c4.8,0.9,12.1,2.1,22,3.6c19.8,3,50.1,7,91.8,11c83.5,8,213,16,397,16v-1
			c-184,0-313.5-8-397-16c-41.7-4-72-8-91.8-11c-9.9-1.5-17.2-2.7-22-3.6c-2.4-0.4-4.2-0.8-5.4-1c-0.6-0.1-1-0.2-1.3-0.3
			c-0.1,0-0.3-0.1-0.3-0.1l-0.1,0l0,0C0.3,159,0.3,159,0.2,159.4z M0.2,196.9c0,0,0,0,0.1-0.5c0.1-0.5,0.1-0.5,0.1-0.5l0.1,0
			c0.1,0,0.2,0,0.3,0c0.3,0,0.7,0.1,1.3,0.2c1.2,0.1,3,0.3,5.4,0.6c4.8,0.5,12.1,1.2,22,2c19.8,1.7,50.1,3.9,91.8,6.2
			c83.5,4.5,213,9,397,9v1c-184,0-313.5-4.5-397-9c-41.8-2.2-72-4.5-91.8-6.2c-9.9-0.8-17.2-1.5-22-2c-2.4-0.2-4.2-0.4-5.4-0.6
			c-0.6-0.1-1-0.1-1.3-0.2c-0.1,0-0.3,0-0.3,0L0.2,196.9z M0.2,232.4c0,0.5,0,0.5,0,0.5l0.1,0c0.1,0,0.2,0,0.3,0
			c0.3,0,0.7,0.1,1.3,0.1c1.2,0.1,3,0.2,5.4,0.4c4.8,0.4,12.1,0.9,22,1.5c19.8,1.2,50.1,2.8,91.8,4.5c83.5,3.2,213,6.5,397,6.5v-1
			c-184,0-313.5-3.2-397-6.5c-41.7-1.6-72-3.2-91.8-4.5c-9.9-0.6-17.2-1.1-22-1.5c-2.4-0.2-4.2-0.3-5.4-0.4c-0.6,0-1-0.1-1.3-0.1
			l-0.3,0l-0.1,0C0.3,231.9,0.3,231.9,0.2,232.4z M0.2,269.9c0,0,0,0,0-0.5c0-0.5,0-0.5,0-0.5l0.4,0c0.3,0,0.7,0,1.3,0
			c1.2,0,3,0.1,5.4,0.1c4.8,0.1,12.1,0.3,22,0.5c19.8,0.4,50.1,0.9,91.8,1.4c83.5,1,213,2,397,2v1c-184,0-313.5-1-397-2
			c-41.8-0.5-72-1-91.8-1.4c-9.9-0.2-17.2-0.3-22-0.5C5,270.1,3.2,270,2,270c-0.6,0-1,0-1.3,0L0.2,269.9z M0.2,305.4c0,0,0,0,0-0.5
			s0-0.5,0-0.5h518v1H0.2z M0,637c0,0,0,0,0.2,0.5c0.2,0.5,0.2,0.5,0.2,0.5l0,0l0,0l0.1,0c0.1,0,0.2-0.1,0.3-0.2
			c0.3-0.1,0.7-0.3,1.3-0.6c1.2-0.5,3-1.3,5.4-2.3c4.8-2,12.1-4.8,22-8.1c19.8-6.7,50-15.7,91.8-24.7c83.5-18,212.9-36,396.9-36v-1
			c-184,0-313.6,18-397.1,36c-41.8,9-72,18-91.9,24.8c-9.9,3.4-17.2,6.2-22.1,8.2c-2.4,1-4.2,1.8-5.4,2.3c-0.6,0.3-1,0.5-1.3,0.6
			c-0.1,0.1-0.3,0.1-0.3,0.2L0,637L0,637L0,637z M0.2,593.4C0.1,593,0.1,593,0.1,593l0,0l0,0l0.1,0c0.1,0,0.2-0.1,0.3-0.1
			c0.3-0.1,0.7-0.2,1.3-0.4c1.2-0.4,3-0.9,5.4-1.5c4.8-1.3,12.1-3.2,22-5.4c19.8-4.5,50.1-10.5,91.9-16.5c83.5-12,213-24,397.1-24v1
			c-184,0-313.5,12-396.9,24c-41.7,6-72,12-91.8,16.5c-9.9,2.2-17.2,4.1-22,5.4c-2.4,0.7-4.2,1.2-5.4,1.5c-0.6,0.2-1,0.3-1.3,0.4
			c-0.1,0-0.3,0.1-0.3,0.1l-0.1,0l0,0l0,0C0.4,593.9,0.4,593.9,0.2,593.4z M0.1,552.9c0,0,0,0,0.1,0.5c0.1,0.5,0.1,0.5,0.1,0.5l0,0
			l0.1,0c0.1,0,0.2,0,0.3-0.1c0.3-0.1,0.7-0.1,1.3-0.3c1.2-0.2,3-0.6,5.4-1c4.8-0.9,12.1-2.1,22-3.6c19.8-3,50-7,91.8-11
			c83.5-8,213-16,397-16v-1c-184,0-313.5,8-397,16c-41.8,4-72,8-91.8,11c-9.9,1.5-17.2,2.8-22,3.6c-2.4,0.4-4.2,0.8-5.4,1
			c-0.6,0.1-1,0.2-1.3,0.3c-0.1,0-0.3,0.1-0.3,0.1L0.1,552.9L0.1,552.9z M0.2,516.4c-0.1-0.5-0.1-0.5-0.1-0.5l0.1,0
			c0.1,0,0.2,0,0.3,0c0.3,0,0.7-0.1,1.3-0.2c1.2-0.1,3-0.3,5.4-0.6c4.8-0.5,12.1-1.2,22-2c19.8-1.7,50.1-3.9,91.8-6.2
			c83.5-4.5,213-9,397-9v1c-184,0-313.5,4.5-397,9c-41.7,2.2-72,4.5-91.8,6.2c-9.9,0.8-17.2,1.5-22,2c-2.4,0.2-4.2,0.4-5.4,0.6
			c-0.6,0.1-1,0.1-1.3,0.1c-0.1,0-0.3,0-0.3,0l-0.1,0C0.3,516.9,0.3,516.9,0.2,516.4z M0.2,479.9c0,0,0,0,0,0.5c0,0.5,0,0.5,0,0.5
			l0.1,0c0.1,0,0.2,0,0.3,0c0.3,0,0.7-0.1,1.3-0.1c1.2-0.1,3-0.2,5.4-0.4c4.8-0.4,12.1-0.9,22-1.5c19.8-1.2,50.1-2.8,91.8-4.5
			c83.5-3.2,213-6.5,397-6.5v-1c-184,0-313.5,3.2-397,6.5c-41.8,1.6-72,3.2-91.8,4.5c-9.9,0.6-17.2,1.1-22,1.5
			c-2.4,0.2-4.2,0.3-5.4,0.4c-0.6,0-1,0.1-1.3,0.1c-0.1,0-0.3,0-0.3,0L0.2,479.9z M0.2,443.4c0-0.5,0-0.5,0-0.5l0.4,0
			c0.3,0,0.7,0,1.3,0c1.2,0,3-0.1,5.4-0.1c4.8-0.1,12.1-0.3,22-0.5c19.8-0.4,50.1-0.9,91.8-1.4c83.5-1,213-2,397-2v1
			c-184,0-313.5,1-397,2c-41.7,0.5-72,1-91.8,1.4c-9.9,0.2-17.2,0.3-22,0.5c-2.4,0.1-4.2,0.1-5.4,0.1c-0.6,0-1,0-1.3,0l-0.4,0
			C0.2,443.9,0.2,443.9,0.2,443.4z"/>
	</g>
</g>
</svg>
